<svg width="37" height="12" viewBox="0 0 37 12" fill="none" xmlns="http://www.w3.org/2000/svg">
<path d="M5.63068 4.25213L5.28622 5.00852H0.573864L0.854403 4.25213H5.63068ZM4.97372 5.71875L4.60795 6.4858H0.573864L0.854403 5.71875H4.97372ZM6.52557 2.31676L6.02841 3.375C5.91477 3.28504 5.78575 3.19744 5.64134 3.11222C5.49692 3.02699 5.33712 2.95597 5.16193 2.89915C4.98674 2.84233 4.79498 2.81392 4.58665 2.81392C4.2339 2.81392 3.92259 2.90743 3.6527 3.09446C3.38281 3.27912 3.17093 3.56084 3.01705 3.93963C2.86553 4.31605 2.78977 4.79309 2.78977 5.37074C2.78977 5.94839 2.86553 6.42543 3.01705 6.80185C3.17093 7.17827 3.38281 7.45762 3.6527 7.63991C3.92259 7.82221 4.2339 7.91335 4.58665 7.91335C4.79498 7.91335 4.98674 7.88613 5.16193 7.83168C5.33712 7.77723 5.49456 7.70857 5.63423 7.62571C5.77628 7.54285 5.8982 7.45999 6 7.37713L6.50426 8.43537C6.25095 8.65554 5.95857 8.82126 5.62713 8.93253C5.29806 9.0438 4.95123 9.09943 4.58665 9.09943C3.98059 9.09943 3.44318 8.95147 2.97443 8.65554C2.50805 8.35724 2.14228 7.92992 1.87713 7.37358C1.61198 6.81487 1.4794 6.14725 1.4794 5.37074C1.4794 4.59186 1.61198 3.92306 1.87713 3.36435C2.14228 2.80563 2.50805 2.37713 2.97443 2.07884C3.44318 1.77817 3.98059 1.62784 4.58665 1.62784C4.96544 1.62784 5.317 1.68821 5.64134 1.80895C5.96804 1.92732 6.26278 2.09659 6.52557 2.31676ZM11.0506 4.83452V5.89276H7.77646V4.83452H11.0506ZM14.7322 9.90909V0.818181H15.3146V9.90909H14.7322ZM16.4119 3.72656C16.3788 3.41643 16.2391 3.17495 15.9929 3.00213C15.7491 2.82931 15.4318 2.7429 15.0412 2.7429C14.7666 2.7429 14.531 2.78433 14.3345 2.86719C14.138 2.95005 13.9877 3.0625 13.8835 3.20455C13.7794 3.34659 13.7261 3.50876 13.7237 3.69105C13.7237 3.84257 13.758 3.97396 13.8267 4.08523C13.8977 4.1965 13.9936 4.29119 14.1143 4.36932C14.2351 4.44508 14.3688 4.509 14.5156 4.56108C14.6624 4.61316 14.8104 4.65696 14.9595 4.69247L15.6413 4.86293C15.916 4.92685 16.1799 5.01326 16.4332 5.12216C16.6889 5.23106 16.9174 5.36837 17.1186 5.53409C17.3222 5.69981 17.4832 5.89986 17.6016 6.13423C17.7199 6.36861 17.7791 6.64323 17.7791 6.9581C17.7791 7.38423 17.6702 7.75947 17.4524 8.08381C17.2346 8.40578 16.9197 8.65791 16.5078 8.8402C16.0982 9.02012 15.6023 9.11009 15.0199 9.11009C14.4541 9.11009 13.9628 9.02249 13.5462 8.8473C13.1319 8.67211 12.8075 8.41643 12.5732 8.08026C12.3411 7.74408 12.2157 7.33452 12.1967 6.85156H13.4929C13.5118 7.10488 13.59 7.31558 13.7273 7.48366C13.8646 7.65175 14.0433 7.77723 14.2635 7.86009C14.486 7.94295 14.7346 7.98438 15.0092 7.98438C15.2957 7.98438 15.5466 7.94176 15.7621 7.85653C15.9799 7.76894 16.1503 7.6482 16.2734 7.49432C16.3965 7.33807 16.4593 7.15578 16.4616 6.94744C16.4593 6.75805 16.4036 6.6018 16.2947 6.47869C16.1858 6.35322 16.0331 6.24905 15.8366 6.16619C15.6425 6.08097 15.4152 6.00521 15.1548 5.93892L14.3274 5.72585C13.7285 5.57197 13.255 5.33878 12.907 5.02628C12.5613 4.71141 12.3885 4.29356 12.3885 3.77273C12.3885 3.34422 12.5045 2.96899 12.7365 2.64702C12.9709 2.32505 13.2893 2.07528 13.6918 1.89773C14.0942 1.7178 14.55 1.62784 15.0589 1.62784C15.575 1.62784 16.0272 1.7178 16.4155 1.89773C16.8061 2.07528 17.1127 2.32268 17.3352 2.63991C17.5578 2.95478 17.6726 3.317 17.6797 3.72656H16.4119ZM20.1824 5.80398V9H18.8968V1.72727H20.1539V4.4723H20.2179C20.3457 4.16454 20.5434 3.92187 20.8109 3.74432C21.0808 3.56439 21.4241 3.47443 21.8407 3.47443C22.2195 3.47443 22.5498 3.55374 22.8315 3.71236C23.1132 3.87098 23.331 4.10298 23.4849 4.40838C23.6412 4.71378 23.7193 5.08665 23.7193 5.52699V9H22.4338V5.72585C22.4338 5.3589 22.3391 5.07363 22.1497 4.87003C21.9627 4.66406 21.6999 4.56108 21.3613 4.56108C21.1341 4.56108 20.9305 4.6108 20.7505 4.71023C20.573 4.80729 20.4333 4.94815 20.3315 5.13281C20.2321 5.31747 20.1824 5.54119 20.1824 5.80398ZM27.4089 9.10653C26.8762 9.10653 26.4146 8.98935 26.024 8.75497C25.6333 8.5206 25.3303 8.19271 25.1149 7.77131C24.9018 7.34991 24.7953 6.85748 24.7953 6.29403C24.7953 5.73059 24.9018 5.23698 25.1149 4.81321C25.3303 4.38944 25.6333 4.06037 26.024 3.82599C26.4146 3.59162 26.8762 3.47443 27.4089 3.47443C27.9416 3.47443 28.4032 3.59162 28.7939 3.82599C29.1845 4.06037 29.4863 4.38944 29.6994 4.81321C29.9148 5.23698 30.0225 5.73059 30.0225 6.29403C30.0225 6.85748 29.9148 7.34991 29.6994 7.77131C29.4863 8.19271 29.1845 8.5206 28.7939 8.75497C28.4032 8.98935 27.9416 9.10653 27.4089 9.10653ZM27.416 8.0767C27.7048 8.0767 27.9463 7.9974 28.1404 7.83878C28.3346 7.67779 28.479 7.46236 28.5737 7.19247C28.6708 6.92259 28.7193 6.62192 28.7193 6.29048C28.7193 5.95668 28.6708 5.65483 28.5737 5.38494C28.479 5.11269 28.3346 4.89607 28.1404 4.73509C27.9463 4.5741 27.7048 4.49361 27.416 4.49361C27.1201 4.49361 26.8739 4.5741 26.6774 4.73509C26.4833 4.89607 26.3377 5.11269 26.2406 5.38494C26.1459 5.65483 26.0985 5.95668 26.0985 6.29048C26.0985 6.62192 26.1459 6.92259 26.2406 7.19247C26.3377 7.46236 26.4833 7.67779 26.6774 7.83878C26.8739 7.9974 27.1201 8.0767 27.416 8.0767ZM31.1136 11.0455V3.54545H32.3778V4.44744H32.4524C32.5187 4.31487 32.6122 4.17401 32.733 4.02486C32.8537 3.87334 33.017 3.74432 33.223 3.63778C33.429 3.52888 33.6918 3.47443 34.0114 3.47443C34.4328 3.47443 34.8127 3.58215 35.1513 3.79759C35.4922 4.01065 35.7621 4.3267 35.9609 4.74574C36.1622 5.16241 36.2628 5.67377 36.2628 6.27983C36.2628 6.87879 36.1645 7.38778 35.968 7.80682C35.7715 8.22585 35.504 8.54545 35.1655 8.76562C34.8269 8.9858 34.4434 9.09588 34.0149 9.09588C33.7024 9.09588 33.4432 9.0438 33.2372 8.93963C33.0313 8.83546 32.8655 8.70999 32.7401 8.56321C32.617 8.41406 32.5211 8.2732 32.4524 8.14062H32.3991V11.0455H31.1136ZM32.3743 6.27273C32.3743 6.62547 32.424 6.93442 32.5234 7.19957C32.6252 7.46473 32.7708 7.67187 32.9602 7.82102C33.152 7.9678 33.384 8.04119 33.6562 8.04119C33.9403 8.04119 34.1783 7.96544 34.37 7.81392C34.5618 7.66004 34.7062 7.45052 34.8033 7.18537C34.9027 6.91785 34.9524 6.61364 34.9524 6.27273C34.9524 5.93419 34.9039 5.63352 34.8068 5.37074C34.7098 5.10795 34.5653 4.90199 34.3736 4.75284C34.1818 4.60369 33.9427 4.52912 33.6562 4.52912C33.3816 4.52912 33.1484 4.60133 32.9567 4.74574C32.7649 4.89015 32.6193 5.09257 32.5199 5.35298C32.4228 5.6134 32.3743 5.91998 32.3743 6.27273Z" fill="white" fill-opacity="0.4"/>
</svg>
