<svg width="47" height="11" viewBox="0 0 47 11" fill="none" xmlns="http://www.w3.org/2000/svg">
<path d="M0.0112748 8V0.727273H4.74139V1.83168H1.32875V3.80611H4.49636V4.91051H1.32875V6.8956H4.7698V8H0.0112748ZM7.07981 2.54545L8.18066 4.55895L9.29927 2.54545H10.6594L9.01518 5.27273L10.6878 8H9.33478L8.18066 6.03622L7.0372 8H5.67356L7.33549 5.27273L5.71618 2.54545H7.07981ZM13.8279 8.10653C13.2834 8.10653 12.8158 7.98698 12.4252 7.74787C12.0369 7.50876 11.7374 7.1785 11.5267 6.7571C11.3184 6.33333 11.2142 5.84564 11.2142 5.29403C11.2142 4.74006 11.3208 4.25118 11.5338 3.82741C11.7469 3.40128 12.0476 3.06984 12.4358 2.8331C12.8264 2.59399 13.2881 2.47443 13.8208 2.47443C14.2635 2.47443 14.6553 2.55611 14.9962 2.71946C15.3395 2.88045 15.6129 3.1089 15.8165 3.40483C16.0201 3.69839 16.1361 4.04167 16.1645 4.43466H14.9358C14.8861 4.17187 14.7677 3.95289 14.5807 3.7777C14.396 3.60014 14.1486 3.51136 13.8385 3.51136C13.5757 3.51136 13.3449 3.58239 13.146 3.72443C12.9472 3.86411 12.7921 4.06534 12.6808 4.32812C12.5719 4.59091 12.5175 4.90578 12.5175 5.27273C12.5175 5.64441 12.5719 5.96402 12.6808 6.23153C12.7897 6.49669 12.9424 6.70147 13.1389 6.84588C13.3378 6.98793 13.571 7.05895 13.8385 7.05895C14.0279 7.05895 14.1972 7.02344 14.3463 6.95241C14.4978 6.87902 14.6245 6.77367 14.7263 6.63636C14.8281 6.49905 14.8979 6.33215 14.9358 6.13565H16.1645C16.1337 6.52154 16.0201 6.86364 15.8236 7.16193C15.6271 7.45786 15.3596 7.68987 15.021 7.85795C14.6825 8.02367 14.2848 8.10653 13.8279 8.10653ZM18.5056 4.80398V8H17.2201V0.727273H18.4772V3.4723H18.5411C18.6689 3.16454 18.8666 2.92187 19.1341 2.74432C19.404 2.56439 19.7473 2.47443 20.164 2.47443C20.5428 2.47443 20.873 2.55374 21.1547 2.71236C21.4365 2.87098 21.6543 3.10298 21.8082 3.40838C21.9644 3.71378 22.0425 4.08665 22.0425 4.52699V8H20.757V4.72585C20.757 4.3589 20.6623 4.07363 20.4729 3.87003C20.2859 3.66406 20.0231 3.56108 19.6846 3.56108C19.4573 3.56108 19.2537 3.6108 19.0738 3.71023C18.8962 3.80729 18.7565 3.94815 18.6547 4.13281C18.5553 4.31747 18.5056 4.54119 18.5056 4.80398ZM24.9225 8.11009C24.5769 8.11009 24.2655 8.04853 23.9885 7.92543C23.7139 7.79995 23.4961 7.61529 23.3351 7.37145C23.1765 7.1276 23.0972 6.82694 23.0972 6.46946C23.0972 6.1617 23.154 5.9072 23.2677 5.70597C23.3813 5.50473 23.5364 5.34375 23.7329 5.22301C23.9294 5.10227 24.1507 5.01113 24.3969 4.94957C24.6455 4.88565 24.9024 4.83949 25.1675 4.81108C25.4871 4.77794 25.7464 4.74834 25.9452 4.7223C26.1441 4.69389 26.2885 4.65128 26.3785 4.59446C26.4708 4.53527 26.517 4.44413 26.517 4.32102V4.29972C26.517 4.0322 26.4376 3.82505 26.279 3.67827C26.1204 3.53149 25.892 3.4581 25.5937 3.4581C25.2788 3.4581 25.029 3.52675 24.8444 3.66406C24.6621 3.80137 24.539 3.96354 24.4751 4.15057L23.2748 3.98011C23.3695 3.64867 23.5257 3.37169 23.7435 3.14915C23.9613 2.92424 24.2277 2.75616 24.5425 2.64489C24.8574 2.53125 25.2054 2.47443 25.5866 2.47443C25.8493 2.47443 26.1109 2.50521 26.3714 2.56676C26.6318 2.62831 26.8697 2.73011 27.0851 2.87216C27.3006 3.01184 27.4734 3.20241 27.6036 3.44389C27.7362 3.68537 27.8025 3.98722 27.8025 4.34943V8H26.5667V7.25071H26.5241C26.4459 7.40223 26.3358 7.54427 26.1938 7.67685C26.0541 7.80705 25.8778 7.91241 25.6647 7.9929C25.454 8.07102 25.2066 8.11009 24.9225 8.11009ZM25.2563 7.16548C25.5144 7.16548 25.7381 7.11458 25.9275 7.01278C26.1169 6.90862 26.2625 6.77131 26.3643 6.60085C26.4684 6.4304 26.5205 6.24455 26.5205 6.04332V5.40057C26.4803 5.43371 26.4116 5.46449 26.3145 5.4929C26.2198 5.52131 26.1133 5.54616 25.9949 5.56747C25.8766 5.58878 25.7594 5.60772 25.6434 5.62429C25.5274 5.64086 25.4268 5.65507 25.3415 5.6669C25.1498 5.69294 24.9781 5.73556 24.8266 5.79474C24.6751 5.85393 24.5555 5.93679 24.468 6.04332C24.3804 6.14749 24.3366 6.28243 24.3366 6.44815C24.3366 6.6849 24.423 6.86364 24.5958 6.98438C24.7686 7.10511 24.9888 7.16548 25.2563 7.16548ZM30.3806 4.80398V8H29.0951V2.54545H30.3238V3.4723H30.3877C30.5132 3.1669 30.7132 2.92424 30.9878 2.74432C31.2648 2.56439 31.6069 2.47443 32.0141 2.47443C32.3905 2.47443 32.7184 2.55492 32.9978 2.71591C33.2795 2.87689 33.4973 3.11009 33.6512 3.41548C33.8074 3.72088 33.8844 4.09138 33.882 4.52699V8H32.5965V4.72585C32.5965 4.36127 32.5018 4.07599 32.3124 3.87003C32.1254 3.66406 31.8662 3.56108 31.5347 3.56108C31.3098 3.56108 31.1098 3.6108 30.9346 3.71023C30.7617 3.80729 30.6256 3.94815 30.5262 4.13281C30.4291 4.31747 30.3806 4.54119 30.3806 4.80398ZM37.561 10.1591C37.0993 10.1591 36.7028 10.0964 36.3714 9.97088C36.0399 9.84777 35.7736 9.68205 35.5724 9.47372C35.3711 9.26539 35.2314 9.03456 35.1533 8.78125L36.311 8.50071C36.3631 8.60724 36.4388 8.71259 36.5383 8.81676C36.6377 8.9233 36.7715 9.01089 36.9395 9.07955C37.11 9.15057 37.3242 9.18608 37.5823 9.18608C37.9469 9.18608 38.2487 9.0973 38.4878 8.91974C38.7269 8.74455 38.8465 8.45573 38.8465 8.05327V7.01989H38.7826C38.7163 7.15246 38.6192 7.28859 38.4914 7.42827C38.3659 7.56795 38.199 7.68513 37.9907 7.77983C37.7847 7.87453 37.5255 7.92188 37.213 7.92188C36.7939 7.92188 36.414 7.82363 36.0731 7.62713C35.7345 7.42827 35.4646 7.13234 35.2634 6.73935C35.0645 6.34399 34.9651 5.8492 34.9651 5.25497C34.9651 4.65601 35.0645 4.15057 35.2634 3.73864C35.4646 3.32434 35.7357 3.01065 36.0766 2.79759C36.4175 2.58215 36.7975 2.47443 37.2165 2.47443C37.5361 2.47443 37.7989 2.52888 38.0049 2.63778C38.2132 2.74432 38.3789 2.87334 38.502 3.02486C38.6251 3.17401 38.7187 3.31487 38.7826 3.44744H38.8536V2.54545H40.1214V8.08878C40.1214 8.55516 40.0101 8.94105 39.7876 9.24645C39.565 9.55185 39.2608 9.7803 38.8749 9.93182C38.489 10.0833 38.051 10.1591 37.561 10.1591ZM37.5716 6.91335C37.8439 6.91335 38.0759 6.84706 38.2677 6.71449C38.4594 6.58191 38.605 6.39134 38.7045 6.14276C38.8039 5.89418 38.8536 5.59588 38.8536 5.24787C38.8536 4.90459 38.8039 4.60393 38.7045 4.34588C38.6074 4.08783 38.463 3.88778 38.2712 3.74574C38.0818 3.60133 37.8486 3.52912 37.5716 3.52912C37.2852 3.52912 37.0461 3.60369 36.8543 3.75284C36.6626 3.90199 36.5181 4.10677 36.4211 4.36719C36.324 4.62524 36.2755 4.9188 36.2755 5.24787C36.2755 5.58168 36.324 5.87405 36.4211 6.125C36.5205 6.37358 36.6661 6.56771 36.8579 6.70739C37.052 6.8447 37.2899 6.91335 37.5716 6.91335ZM43.8536 8.10653C43.3067 8.10653 42.8344 7.9929 42.4367 7.76562C42.0413 7.53598 41.7371 7.21165 41.5241 6.79261C41.311 6.37121 41.2045 5.87524 41.2045 5.30469C41.2045 4.74361 41.311 4.25118 41.5241 3.82741C41.7395 3.40128 42.0402 3.06984 42.426 2.8331C42.8119 2.59399 43.2653 2.47443 43.7861 2.47443C44.1223 2.47443 44.4395 2.52888 44.7378 2.63778C45.0385 2.74432 45.3037 2.91004 45.5333 3.13494C45.7653 3.35985 45.9476 3.64631 46.0802 3.99432C46.2127 4.33996 46.279 4.75189 46.279 5.23011V5.62429H41.8081V4.75781H45.0468C45.0444 4.5116 44.9912 4.29261 44.887 4.10085C44.7828 3.90672 44.6372 3.75402 44.4502 3.64276C44.2655 3.53149 44.0501 3.47585 43.8039 3.47585C43.5411 3.47585 43.3103 3.53977 43.1114 3.66761C42.9126 3.79309 42.7575 3.95881 42.6462 4.16477C42.5373 4.36837 42.4817 4.59209 42.4793 4.83594V5.59233C42.4793 5.90956 42.5373 6.18182 42.6533 6.40909C42.7693 6.634 42.9315 6.80682 43.1398 6.92756C43.3482 7.04593 43.592 7.10511 43.8714 7.10511C44.0584 7.10511 44.2277 7.07907 44.3792 7.02699C44.5307 6.97254 44.6621 6.89323 44.7733 6.78906C44.8846 6.6849 44.9687 6.55587 45.0255 6.40199L46.2258 6.53693C46.15 6.85417 46.0056 7.13116 45.7925 7.3679C45.5818 7.60227 45.3119 7.78456 44.9829 7.91477C44.6538 8.04261 44.2774 8.10653 43.8536 8.10653Z" fill="white"/>
</svg>
