<svg width="59" height="11" viewBox="0 0 59 11" fill="none" xmlns="http://www.w3.org/2000/svg">
<path d="M0.0835405 8V0.727273H1.40101V6.8956H4.60414V8H0.0835405ZM7.26039 8.11009C6.91474 8.11009 6.60343 8.04853 6.32644 7.92543C6.05182 7.79995 5.83401 7.61529 5.67303 7.37145C5.51441 7.1276 5.4351 6.82694 5.4351 6.46946C5.4351 6.1617 5.49192 5.9072 5.60556 5.70597C5.71919 5.50473 5.87426 5.34375 6.07076 5.22301C6.26725 5.10227 6.48861 5.01113 6.73482 4.94957C6.9834 4.88565 7.24026 4.83949 7.50542 4.81108C7.82502 4.77794 8.08425 4.74834 8.28311 4.7223C8.48198 4.69389 8.62639 4.65128 8.71635 4.59446C8.80868 4.53527 8.85485 4.44413 8.85485 4.32102V4.29972C8.85485 4.0322 8.77554 3.82505 8.61692 3.67827C8.4583 3.53149 8.22985 3.4581 7.93155 3.4581C7.61668 3.4581 7.36692 3.52675 7.18226 3.66406C6.99997 3.80137 6.87686 3.96354 6.81294 4.15057L5.61266 3.98011C5.70736 3.64867 5.86361 3.37169 6.08141 3.14915C6.29921 2.92424 6.56555 2.75616 6.88042 2.64489C7.19528 2.53125 7.54329 2.47443 7.92445 2.47443C8.18723 2.47443 8.44883 2.50521 8.70925 2.56676C8.96967 2.62831 9.20759 2.73011 9.42303 2.87216C9.63846 3.01184 9.81129 3.20241 9.9415 3.44389C10.0741 3.68537 10.1404 3.98722 10.1404 4.34943V8H8.90456V7.25071H8.86195C8.78382 7.40223 8.67374 7.54427 8.53169 7.67685C8.39202 7.80705 8.21564 7.91241 8.00257 7.9929C7.79187 8.07102 7.54448 8.11009 7.26039 8.11009ZM7.59419 7.16548C7.85224 7.16548 8.07596 7.11458 8.26536 7.01278C8.45475 6.90862 8.60035 6.77131 8.70215 6.60085C8.80632 6.4304 8.8584 6.24455 8.8584 6.04332V5.40057C8.81815 5.43371 8.7495 5.46449 8.65243 5.4929C8.55774 5.52131 8.4512 5.54616 8.33283 5.56747C8.21446 5.58878 8.09727 5.60772 7.98127 5.62429C7.86526 5.64086 7.76465 5.65507 7.67942 5.6669C7.48766 5.69294 7.31602 5.73556 7.16451 5.79474C7.01299 5.85393 6.89344 5.93679 6.80584 6.04332C6.71825 6.14749 6.67445 6.28243 6.67445 6.44815C6.67445 6.6849 6.76086 6.86364 6.93368 6.98438C7.1065 7.10511 7.32668 7.16548 7.59419 7.16548ZM14.9095 5.70597V2.54545H16.195V8H14.9486V7.03054H14.8918C14.7687 7.33594 14.5663 7.5857 14.2845 7.77983C14.0052 7.97396 13.6607 8.07102 13.2512 8.07102C12.8937 8.07102 12.5776 7.99171 12.303 7.8331C12.0307 7.67211 11.8177 7.43892 11.6638 7.13352C11.5099 6.82576 11.433 6.45407 11.433 6.01847V2.54545H12.7185V5.8196C12.7185 6.16525 12.8132 6.43987 13.0026 6.64347C13.192 6.84706 13.4405 6.94886 13.7483 6.94886C13.9377 6.94886 14.1212 6.9027 14.2987 6.81037C14.4763 6.71804 14.6219 6.58073 14.7355 6.39844C14.8515 6.21378 14.9095 5.98295 14.9095 5.70597ZM18.8025 4.80398V8H17.517V2.54545H18.7456V3.4723H18.8096C18.935 3.1669 19.1351 2.92424 19.4097 2.74432C19.6867 2.56439 20.0288 2.47443 20.436 2.47443C20.8124 2.47443 21.1403 2.55492 21.4197 2.71591C21.7014 2.87689 21.9192 3.11009 22.0731 3.41548C22.2293 3.72088 22.3063 4.09138 22.3039 4.52699V8H21.0184V4.72585C21.0184 4.36127 20.9237 4.07599 20.7343 3.87003C20.5473 3.66406 20.288 3.56108 19.9566 3.56108C19.7317 3.56108 19.5316 3.6108 19.3564 3.71023C19.1836 3.80729 19.0475 3.94815 18.9481 4.13281C18.851 4.31747 18.8025 4.54119 18.8025 4.80398ZM25.99 8.10653C25.4455 8.10653 24.9779 7.98698 24.5873 7.74787C24.199 7.50876 23.8995 7.1785 23.6888 6.7571C23.4805 6.33333 23.3763 5.84564 23.3763 5.29403C23.3763 4.74006 23.4829 4.25118 23.6959 3.82741C23.909 3.40128 24.2097 3.06984 24.5979 2.8331C24.9885 2.59399 25.4502 2.47443 25.9829 2.47443C26.4256 2.47443 26.8174 2.55611 27.1583 2.71946C27.5016 2.88045 27.775 3.1089 27.9786 3.40483C28.1822 3.69839 28.2982 4.04167 28.3266 4.43466H27.0979C27.0482 4.17187 26.9298 3.95289 26.7428 3.7777C26.5581 3.60014 26.3108 3.51136 26.0006 3.51136C25.7378 3.51136 25.507 3.58239 25.3081 3.72443C25.1093 3.86411 24.9542 4.06534 24.843 4.32812C24.734 4.59091 24.6796 4.90578 24.6796 5.27273C24.6796 5.64441 24.734 5.96402 24.843 6.23153C24.9519 6.49669 25.1046 6.70147 25.301 6.84588C25.4999 6.98793 25.7331 7.05895 26.0006 7.05895C26.19 7.05895 26.3593 7.02344 26.5084 6.95241C26.6599 6.87902 26.7866 6.77367 26.8884 6.63636C26.9902 6.49905 27.06 6.33215 27.0979 6.13565H28.3266C28.2958 6.52154 28.1822 6.86364 27.9857 7.16193C27.7892 7.45786 27.5217 7.68987 27.1831 7.85795C26.8446 8.02367 26.4469 8.10653 25.99 8.10653ZM30.6677 4.80398V8H29.3822V0.727273H30.6393V3.4723H30.7032C30.8311 3.16454 31.0287 2.92187 31.2963 2.74432C31.5661 2.56439 31.9094 2.47443 32.3261 2.47443C32.7049 2.47443 33.0351 2.55374 33.3169 2.71236C33.5986 2.87098 33.8164 3.10298 33.9703 3.40838C34.1265 3.71378 34.2046 4.08665 34.2046 4.52699V8H32.9191V4.72585C32.9191 4.3589 32.8244 4.07363 32.635 3.87003C32.448 3.66406 32.1852 3.56108 31.8467 3.56108C31.6194 3.56108 31.4158 3.6108 31.2359 3.71023C31.0583 3.80729 30.9186 3.94815 30.8169 4.13281C30.7174 4.31747 30.6677 4.54119 30.6677 4.80398ZM35.515 10.0455V2.54545H36.7792V3.44744H36.8538C36.9201 3.31487 37.0136 3.17401 37.1343 3.02486C37.2551 2.87334 37.4184 2.74432 37.6244 2.63778C37.8303 2.52888 38.0931 2.47443 38.4127 2.47443C38.8341 2.47443 39.2141 2.58215 39.5526 2.79759C39.8936 3.01065 40.1634 3.3267 40.3623 3.74574C40.5635 4.16241 40.6642 4.67377 40.6642 5.27983C40.6642 5.87879 40.5659 6.38778 40.3694 6.80682C40.1729 7.22585 39.9054 7.54545 39.5669 7.76562C39.2283 7.9858 38.8448 8.09588 38.4163 8.09588C38.1038 8.09588 37.8445 8.0438 37.6386 7.93963C37.4326 7.83546 37.2669 7.70999 37.1414 7.56321C37.0183 7.41406 36.9224 7.2732 36.8538 7.14062H36.8005V10.0455H35.515ZM36.7757 5.27273C36.7757 5.62547 36.8254 5.93442 36.9248 6.19957C37.0266 6.46473 37.1722 6.67187 37.3616 6.82102C37.5534 6.9678 37.7854 7.04119 38.0576 7.04119C38.3417 7.04119 38.5796 6.96544 38.7714 6.81392C38.9632 6.66004 39.1076 6.45052 39.2046 6.18537C39.3041 5.91785 39.3538 5.61364 39.3538 5.27273C39.3538 4.93419 39.3052 4.63352 39.2082 4.37074C39.1111 4.10795 38.9667 3.90199 38.7749 3.75284C38.5832 3.60369 38.3441 3.52912 38.0576 3.52912C37.783 3.52912 37.5498 3.60133 37.358 3.74574C37.1663 3.89015 37.0207 4.09257 36.9213 4.35298C36.8242 4.6134 36.7757 4.91998 36.7757 5.27273ZM43.3346 8.11009C42.989 8.11009 42.6776 8.04853 42.4007 7.92543C42.126 7.79995 41.9082 7.61529 41.7472 7.37145C41.5886 7.1276 41.5093 6.82694 41.5093 6.46946C41.5093 6.1617 41.5661 5.9072 41.6798 5.70597C41.7934 5.50473 41.9485 5.34375 42.145 5.22301C42.3415 5.10227 42.5628 5.01113 42.809 4.94957C43.0576 4.88565 43.3145 4.83949 43.5796 4.81108C43.8992 4.77794 44.1585 4.74834 44.3573 4.7223C44.5562 4.69389 44.7006 4.65128 44.7906 4.59446C44.8829 4.53527 44.9291 4.44413 44.9291 4.32102V4.29972C44.9291 4.0322 44.8498 3.82505 44.6911 3.67827C44.5325 3.53149 44.3041 3.4581 44.0058 3.4581C43.6909 3.4581 43.4411 3.52675 43.2565 3.66406C43.0742 3.80137 42.9511 3.96354 42.8872 4.15057L41.6869 3.98011C41.7816 3.64867 41.9378 3.37169 42.1556 3.14915C42.3734 2.92424 42.6398 2.75616 42.9546 2.64489C43.2695 2.53125 43.6175 2.47443 43.9987 2.47443C44.2615 2.47443 44.5231 2.50521 44.7835 2.56676C45.0439 2.62831 45.2818 2.73011 45.4972 2.87216C45.7127 3.01184 45.8855 3.20241 46.0157 3.44389C46.1483 3.68537 46.2146 3.98722 46.2146 4.34943V8H44.9788V7.25071H44.9362C44.858 7.40223 44.748 7.54427 44.6059 7.67685C44.4662 7.80705 44.2899 7.91241 44.0768 7.9929C43.8661 8.07102 43.6187 8.11009 43.3346 8.11009ZM43.6684 7.16548C43.9265 7.16548 44.1502 7.11458 44.3396 7.01278C44.529 6.90862 44.6746 6.77131 44.7764 6.60085C44.8805 6.4304 44.9326 6.24455 44.9326 6.04332V5.40057C44.8924 5.43371 44.8237 5.46449 44.7267 5.4929C44.632 5.52131 44.5254 5.54616 44.407 5.56747C44.2887 5.58878 44.1715 5.60772 44.0555 5.62429C43.9395 5.64086 43.8389 5.65507 43.7536 5.6669C43.5619 5.69294 43.3902 5.73556 43.2387 5.79474C43.0872 5.85393 42.9677 5.93679 42.8801 6.04332C42.7925 6.14749 42.7487 6.28243 42.7487 6.44815C42.7487 6.6849 42.8351 6.86364 43.0079 6.98438C43.1807 7.10511 43.4009 7.16548 43.6684 7.16548ZM49.5313 8.09588C49.1028 8.09588 48.7193 7.9858 48.3808 7.76562C48.0422 7.54545 47.7747 7.22585 47.5782 6.80682C47.3817 6.38778 47.2835 5.87879 47.2835 5.27983C47.2835 4.67377 47.3829 4.16241 47.5818 3.74574C47.783 3.3267 48.0541 3.01065 48.395 2.79759C48.7359 2.58215 49.1159 2.47443 49.5349 2.47443C49.8545 2.47443 50.1173 2.52888 50.3232 2.63778C50.5292 2.74432 50.6926 2.87334 50.8133 3.02486C50.934 3.17401 51.0276 3.31487 51.0938 3.44744H51.1471V0.727273H52.4362V8H51.172V7.14062H51.0938C51.0276 7.2732 50.9317 7.41406 50.8062 7.56321C50.6807 7.70999 50.515 7.83546 50.309 7.93963C50.1031 8.0438 49.8438 8.09588 49.5313 8.09588ZM49.89 7.04119C50.1623 7.04119 50.3943 6.9678 50.586 6.82102C50.7778 6.67187 50.9234 6.46473 51.0228 6.19957C51.1222 5.93442 51.172 5.62547 51.172 5.27273C51.172 4.91998 51.1222 4.6134 51.0228 4.35298C50.9258 4.09257 50.7813 3.89015 50.5896 3.74574C50.4002 3.60133 50.167 3.52912 49.89 3.52912C49.6035 3.52912 49.3644 3.60369 49.1727 3.75284C48.9809 3.90199 48.8365 4.10795 48.7394 4.37074C48.6424 4.63352 48.5938 4.93419 48.5938 5.27273C48.5938 5.61364 48.6424 5.91785 48.7394 6.18537C48.8389 6.45052 48.9845 6.66004 49.1762 6.81392C49.3704 6.96544 49.6083 7.04119 49.89 7.04119ZM58.1171 3.98722L56.9452 4.11506C56.9121 3.99669 56.8541 3.88542 56.7712 3.78125C56.6907 3.67708 56.5818 3.59304 56.4445 3.52912C56.3072 3.4652 56.1391 3.43324 55.9403 3.43324C55.6727 3.43324 55.4478 3.49124 55.2655 3.60724C55.0856 3.72325 54.9968 3.87358 54.9992 4.05824C54.9968 4.21686 55.0548 4.34588 55.1732 4.44531C55.2939 4.54474 55.4928 4.62642 55.7698 4.69034L56.7002 4.8892C57.2163 5.00047 57.5998 5.17685 57.8508 5.41832C58.1041 5.6598 58.2319 5.97585 58.2343 6.36648C58.2319 6.70975 58.1313 7.01278 57.9324 7.27557C57.7359 7.53598 57.4625 7.73958 57.1121 7.88636C56.7617 8.03314 56.3593 8.10653 55.9047 8.10653C55.2371 8.10653 54.6997 7.96686 54.2925 7.6875C53.8853 7.40578 53.6427 7.01397 53.5645 6.51207L54.8181 6.39134C54.8749 6.63755 54.9956 6.82339 55.1803 6.94886C55.365 7.07434 55.6053 7.13707 55.9012 7.13707C56.2066 7.13707 56.4516 7.07434 56.6363 6.94886C56.8233 6.82339 56.9168 6.66832 56.9168 6.48366C56.9168 6.32741 56.8564 6.19839 56.7357 6.09659C56.6173 5.99479 56.4327 5.91667 56.1817 5.86222L55.2513 5.6669C54.7281 5.558 54.3411 5.37453 54.0901 5.11648C53.8392 4.85606 53.7149 4.52699 53.7172 4.12926C53.7149 3.79309 53.806 3.50189 53.9907 3.25568C54.1777 3.0071 54.4369 2.81534 54.7684 2.6804C55.1022 2.54309 55.4869 2.47443 55.9225 2.47443C56.5617 2.47443 57.0648 2.61056 57.4317 2.88281C57.801 3.15507 58.0295 3.5232 58.1171 3.98722Z" fill="white" fill-opacity="0.4"/>
</svg>
