<svg width="31" height="9" viewBox="0 0 31 9" fill="none" xmlns="http://www.w3.org/2000/svg">
<path d="M2.65021 8L0.597656 0.727273H2.01456L3.32493 6.07173H3.3924L4.79155 0.727273H6.08061L7.48331 6.07528H7.54723L8.8576 0.727273H10.2745L8.22195 8H6.92223L5.46626 2.89702H5.40945L3.94993 8H2.65021ZM12.1442 8.11009C11.7985 8.11009 11.4872 8.04853 11.2102 7.92543C10.9356 7.79995 10.7178 7.61529 10.5568 7.37145C10.3982 7.1276 10.3189 6.82694 10.3189 6.46946C10.3189 6.1617 10.3757 5.9072 10.4893 5.70597C10.603 5.50473 10.758 5.34375 10.9545 5.22301C11.151 5.10227 11.3724 5.01113 11.6186 4.94957C11.8672 4.88565 12.1241 4.83949 12.3892 4.81108C12.7088 4.77794 12.968 4.74834 13.1669 4.7223C13.3658 4.69389 13.5102 4.65128 13.6001 4.59446C13.6925 4.53527 13.7386 4.44413 13.7386 4.32102V4.29972C13.7386 4.0322 13.6593 3.82505 13.5007 3.67827C13.3421 3.53149 13.1136 3.4581 12.8153 3.4581C12.5005 3.4581 12.2507 3.52675 12.0661 3.66406C11.8838 3.80137 11.7607 3.96354 11.6967 4.15057L10.4964 3.98011C10.5911 3.64867 10.7474 3.37169 10.9652 3.14915C11.183 2.92424 11.4493 2.75616 11.7642 2.64489C12.0791 2.53125 12.4271 2.47443 12.8082 2.47443C13.071 2.47443 13.3326 2.50521 13.593 2.56676C13.8535 2.62831 14.0914 2.73011 14.3068 2.87216C14.5223 3.01184 14.6951 3.20241 14.8253 3.44389C14.9579 3.68537 15.0241 3.98722 15.0241 4.34943V8H13.7884V7.25071H13.7457C13.6676 7.40223 13.5575 7.54427 13.4155 7.67685C13.2758 7.80705 13.0994 7.91241 12.8864 7.9929C12.6757 8.07102 12.4283 8.11009 12.1442 8.11009ZM12.478 7.16548C12.736 7.16548 12.9598 7.11458 13.1491 7.01278C13.3385 6.90862 13.4841 6.77131 13.5859 6.60085C13.6901 6.4304 13.7422 6.24455 13.7422 6.04332V5.40057C13.7019 5.43371 13.6333 5.46449 13.5362 5.4929C13.4415 5.52131 13.335 5.54616 13.2166 5.56747C13.0982 5.58878 12.9811 5.60772 12.8651 5.62429C12.7491 5.64086 12.6484 5.65507 12.5632 5.6669C12.3714 5.69294 12.1998 5.73556 12.0483 5.79474C11.8968 5.85393 11.7772 5.93679 11.6896 6.04332C11.602 6.14749 11.5582 6.28243 11.5582 6.44815C11.5582 6.6849 11.6446 6.86364 11.8175 6.98438C11.9903 7.10511 12.2105 7.16548 12.478 7.16548ZM17.6023 0.727273V8H16.3168V0.727273H17.6023ZM20.2097 0.727273V8H18.9242V0.727273H20.2097ZM23.9464 8.10653C23.3995 8.10653 22.9272 7.9929 22.5295 7.76562C22.1341 7.53598 21.8299 7.21165 21.6168 6.79261C21.4038 6.37121 21.2972 5.87524 21.2972 5.30469C21.2972 4.74361 21.4038 4.25118 21.6168 3.82741C21.8323 3.40128 22.1329 3.06984 22.5188 2.8331C22.9047 2.59399 23.3581 2.47443 23.8789 2.47443C24.2151 2.47443 24.5323 2.52888 24.8306 2.63778C25.1313 2.74432 25.3964 2.91004 25.6261 3.13494C25.8581 3.35985 26.0404 3.64631 26.1729 3.99432C26.3055 4.33996 26.3718 4.75189 26.3718 5.23011V5.62429H21.9009V4.75781H25.1396C25.1372 4.5116 25.0839 4.29261 24.9798 4.10085C24.8756 3.90672 24.73 3.75402 24.543 3.64276C24.3583 3.53149 24.1429 3.47585 23.8967 3.47585C23.6339 3.47585 23.4031 3.53977 23.2042 3.66761C23.0053 3.79309 22.8503 3.95881 22.739 4.16477C22.6301 4.36837 22.5745 4.59209 22.5721 4.83594V5.59233C22.5721 5.90956 22.6301 6.18182 22.7461 6.40909C22.8621 6.634 23.0243 6.80682 23.2326 6.92756C23.4409 7.04593 23.6848 7.10511 23.9641 7.10511C24.1512 7.10511 24.3204 7.07907 24.4719 7.02699C24.6235 6.97254 24.7549 6.89323 24.8661 6.78906C24.9774 6.6849 25.0614 6.55587 25.1183 6.40199L26.3185 6.53693C26.2428 6.85417 26.0984 7.13116 25.8853 7.3679C25.6746 7.60227 25.4047 7.78456 25.0756 7.91477C24.7466 8.04261 24.3701 8.10653 23.9464 8.10653ZM30.1831 2.54545V3.53977H27.0474V2.54545H30.1831ZM27.8216 1.23864H29.1071V6.35938C29.1071 6.5322 29.1331 6.66477 29.1852 6.7571C29.2396 6.84706 29.3107 6.90862 29.3983 6.94176C29.4859 6.97491 29.5829 6.99148 29.6895 6.99148C29.7699 6.99148 29.8433 6.98556 29.9096 6.97372C29.9783 6.96188 30.0304 6.95123 30.0659 6.94176L30.2825 7.94673C30.2138 7.97041 30.1156 7.99645 29.9877 8.02486C29.8623 8.05327 29.7084 8.06984 29.5261 8.07457C29.2041 8.08404 28.9141 8.03551 28.6561 7.92898C28.398 7.82008 28.1932 7.65199 28.0417 7.42472C27.8926 7.19744 27.8192 6.91335 27.8216 6.57244V1.23864Z" fill="white" fill-opacity="0.4"/>
</svg>
